# xmcd CD database file
#
# Track frame offsets:
#        150
#        23567
#        44844
#        68331
#
# Disc length: 1126 seconds
#
# Revision: 0
# Processed by: cddbd v1.5.2PL0 Copyright (c) Steve Scherf et al.
# Submitted via: CUERipper 2.1.2a
#
DISCID=2a046404
DTITLE=Big Blues 2001 - Big Blues 2001
DYEAR=2001
DGENRE=Blues and Rock
TTITLE0=Neighbour,Neighbour
TTITLE1=Red Bloog
TTITLE2=Cold Woman with Warm Hearts
TTITLE3=Couldn't Get It Right
EXTD=
EXTT0=
EXTT1=
EXTT2=
EXTT3=
PLAYORDER=
